<svg width="347" height="94" viewBox="0 0 347 94" fill="none" xmlns="http://www.w3.org/2000/svg">
<g clip-path="url(#clip0_130_73)" filter="url(#filter0_d_130_73)">
<path d="M56.9196 15.522V0.00292969H41.3932L39.8438 1.56548L32.5178 15.52L30.2139 17.0739H4.06616V38.3854H18.4409L19.7209 39.9327L4.06616 69.8336V85.3526H19.5919L21.1419 83.7914L28.4686 69.8363L30.7718 68.283H56.9196V46.9708H42.5442L41.2655 45.4129L56.9196 15.522Z" fill="#45AD47"/>
<path d="M87.6636 70.5445L92.0748 62.1297L94.11 70.5445H87.6636ZM88.0938 46.9732L68 85.3517H79.9239L82.8394 79.767L96.3027 79.7663L97.635 85.3517H109.558L100.368 46.9725L88.0938 46.9732ZM128.309 64.9154H123.215V57.1556H128.309C131.413 57.1556 132.592 58.7076 132.592 61.0666C132.592 63.3641 131.413 64.9154 128.309 64.9154ZM144.27 60.8768C144.27 52.0637 138.307 46.9732 129.923 46.9732H111.728V85.3563H123.215V74.1618H126.01L128.291 74.1552L133.852 85.3563H145.777L138.686 71.8126C142.163 69.5985 144.27 65.8449 144.27 60.8768ZM145.969 46.9732V57.1477H156.823V85.3563H163.363L168.3 75.9148V57.1477H178.145L183.468 46.9732H145.969ZM210.32 0.00264615H221.796V38.3805H210.319V0.00264615H210.32ZM112.71 0.0224923L107.553 9.86155H110.719C116.373 9.86155 119.952 13.4736 119.952 19.1866C119.952 24.8342 116.373 28.4468 110.719 28.4468H107.141V10.6481L96.04 31.8306V38.3752H111.485C123.931 38.3752 131.246 30.874 131.246 19.1866C131.246 7.88554 124.408 0.502108 112.71 0.0218308V0.0224923ZM134.281 38.3805H163.59V28.208H145.756V24.0602H162.152V14.3223H145.756V10.1764H163.59V0.00264615H134.281V38.3805ZM183.994 23.2273L178.432 0.00264615H166.52L175.715 38.3798H187.968L208.08 0.00264615H196.154L183.993 23.2273H183.994ZM305.846 0V10.1745H316.699V38.3831H323.239L328.177 28.9416V10.1745H338.021L343.343 0H305.846ZM243.692 23.5746L248.096 15.1671L250.131 23.5752L243.692 23.5746ZM244.139 0.00264615L224.041 38.3798H235.944L238.87 32.7878H252.321L253.656 38.3798L265.562 38.3805L256.373 0.00264615H244.139ZM291.913 18.1817L279.06 0.00330769H267.742V38.3811H279.214V18.8902L293.444 38.3805H303.386V0.00264615H291.913V18.1817Z" fill="#EDEDED"/>
</g>
<defs>
<filter id="filter0_d_130_73" x="0" y="0" width="347" height="94" filterUnits="userSpaceOnUse" color-interpolation-filters="sRGB">
<feFlood flood-opacity="0" result="BackgroundImageFix"/>
<feColorMatrix in="SourceAlpha" type="matrix" values="0 0 0 0 0 0 0 0 0 0 0 0 0 0 0 0 0 0 127 0" result="hardAlpha"/>
<feOffset dy="4"/>
<feGaussianBlur stdDeviation="2"/>
<feComposite in2="hardAlpha" operator="out"/>
<feColorMatrix type="matrix" values="0 0 0 0 0 0 0 0 0 0 0 0 0 0 0 0 0 0 0.25 0"/>
<feBlend mode="normal" in2="BackgroundImageFix" result="effect1_dropShadow_130_73"/>
<feBlend mode="normal" in="SourceGraphic" in2="effect1_dropShadow_130_73" result="shape"/>
</filter>
<clipPath id="clip0_130_73">
<rect width="339" height="86" fill="white" transform="translate(4)"/>
</clipPath>
</defs>
</svg>
