<svg width="175" height="175" viewBox="0 0 175 175" fill="none" xmlns="http://www.w3.org/2000/svg">
<path d="M87.4999 14.5835C77.9244 14.5835 68.4426 16.4695 59.5959 20.1339C50.7493 23.7984 42.711 29.1694 35.94 35.9403C22.2655 49.6148 14.5833 68.1615 14.5833 87.5002C14.5833 119.729 35.5103 147.073 64.4583 156.771C68.1041 157.354 69.2708 155.094 69.2708 153.125V140.802C49.0728 145.177 44.7708 131.031 44.7708 131.031C41.4166 122.573 36.677 120.313 36.677 120.313C30.0416 115.792 37.1874 115.938 37.1874 115.938C44.4791 116.448 48.3437 123.448 48.3437 123.448C54.6874 134.531 65.4062 131.25 69.5624 129.5C70.2187 124.761 72.1145 121.552 74.1562 119.729C57.9687 117.906 40.9791 111.636 40.9791 83.8543C40.9791 75.7606 43.7499 69.271 48.4895 64.0939C47.7603 62.271 45.2083 54.6877 49.2187 44.8439C49.2187 44.8439 55.3437 42.8752 69.2708 52.2814C75.0312 50.6772 81.302 49.8752 87.4999 49.8752C93.6978 49.8752 99.9687 50.6772 105.729 52.2814C119.656 42.8752 125.781 44.8439 125.781 44.8439C129.792 54.6877 127.24 62.271 126.51 64.0939C131.25 69.271 134.021 75.7606 134.021 83.8543C134.021 111.708 116.958 117.833 100.698 119.656C103.323 121.917 105.729 126.365 105.729 133.146V153.125C105.729 155.094 106.896 157.427 110.615 156.771C139.562 147 160.417 119.729 160.417 87.5002C160.417 77.9246 158.531 68.4428 154.866 59.5962C151.202 50.7495 145.831 42.7112 139.06 35.9403C132.289 29.1694 124.251 23.7984 115.404 20.1339C106.557 16.4695 97.0755 14.5835 87.4999 14.5835Z" fill="#EDEDED"/>
</svg>
