<svg width="176" height="181" viewBox="0 0 176 181" fill="none" xmlns="http://www.w3.org/2000/svg">
<g clip-path="url(#clip0_54_343)">
<path d="M36.8462 0H49.5081V5.29462H42.1408V10.5892H49.5081V15.8839H36.8462V0ZM52.0375 0H64.7043V4.60701H57.3371V5.52546H64.7043V16.1147H52.0375V11.2818H59.4048V10.3584H52.0375V0ZM67.2387 0H79.8957V4.60701H72.5284V5.52546H79.8957V16.1147H67.2387V11.2818H74.606V10.3584H67.2387V0Z" fill="#EDEDED"/>
<path fill-rule="evenodd" clip-rule="evenodd" d="M58.8941 117.877L24.7885 108.407L14.7346 23.1677H103.142L93.093 108.397L58.8941 117.877ZM34.6115 61.7526L35.5496 72.2043H71.7819L70.5688 85.7601L58.9088 88.9133H58.899L47.2587 85.77L46.5122 77.4351H36.0162L37.4799 93.8494L58.8941 99.7924L80.3427 93.8494L82.9556 64.5571L83.211 61.7526L85.0971 40.5889H32.7304L33.6833 51.0455H73.6434L72.6906 61.7526H34.6115Z" fill="#EDEDED"/>
</g>
<mask id="mask0_54_343" style="mask-type:luminance" maskUnits="userSpaceOnUse" x="54" y="55" width="126" height="126">
<path d="M58.2593 57.074H56.2593V59.074V176.815V178.815H58.2593H176H178V176.815V59.074V57.074H176H58.2593Z" fill="white" stroke="white" stroke-width="4"/>
</mask>
<g mask="url(#mask0_54_343)">
<path d="M83.1809 57.074H81.1803L81.1809 59.0746L81.1858 74.95L81.1864 76.9494H83.1858H88.4891H90.4891V74.9494V71.6363H91.3459V74.9494V76.9494H93.3459H98.654H100.654V74.9494V66.338H100.96H103.63V74.9494V76.9494H105.63H110.938H112.938V74.9494V66.338H115.614H115.939V74.9494V76.9494H117.939H123.129H125.129V74.9494V73.851L125.697 74.727H126.784H126.877H127.966L128.527 73.8586V74.9494V76.9494H130.527H135.811H136.45V76.9543H138.45H151.22H153.22V74.9543V69.705V67.705H151.22H145.763V59.074V57.074H143.763H138.45H137.811H136.45H135.811H130.277H129.154L128.569 58.0331L126.876 60.8111L125.18 58.032L124.595 57.074H123.473H117.939H117.614H115.939H115.614H100.96H100.654H98.9598H98.654H93.3459H91.3459V59.074V62.3183H90.4891V59.074V57.074H88.4891H83.1809Z" fill="#EDEDED" stroke="#17181A" stroke-width="4"/>
<path d="M81.028 167.591L81.1852 168.924L82.4791 169.283L116.545 178.742L117.08 178.89L117.615 178.742L151.774 169.274L153.069 168.915L153.226 167.581L163.269 82.4494L163.532 80.2151H161.282H72.9768H70.7272L70.9906 82.4492L81.028 167.591ZM102.358 108.056H100.172L100.366 110.233L101.31 120.839V122.756H103.31H139.179L139.123 123.375L139.122 123.379L136.635 151.258L117.081 156.676L97.5601 151.258L96.4153 138.42H102.889L103.471 144.924L103.596 146.313L104.942 146.676L116.569 149.816L116.825 149.885H117.09H117.1H117.366L117.622 149.816L129.269 146.666L130.614 146.302L130.739 144.914L131.95 131.374L132.145 129.195H129.958H95.5974L93.1382 101.616H141.062L140.487 108.056H102.358Z" fill="#EDEDED" stroke="#17181A" stroke-width="4"/>
</g>
<defs>
<clipPath id="clip0_54_343">
<rect width="117.876" height="117.876" fill="white"/>
</clipPath>
</defs>
</svg>
